<svg width="200" height="200" viewBox="0 0 350 210" fill="none" xmlns="http://www.w3.org/2000/svg">
<rect x="5" y="5" width="337" height="176" rx="5" stroke="black" stroke-width="10"/>
<path d="M150.3 67.3C148.967 65.1 147.433 62.8333 145.7 60.5C143.967 58.1 142.133 55.7333 140.2 53.4C138.267 51.0667 136.267 48.8333 134.2 46.7C132.133 44.5667 130.133 42.6667 128.2 41L134.8 35.7C136.467 37.3667 138.3 39.2333 140.3 41.3C142.3 43.3 144.333 45.4 146.4 47.6C148.533 49.7333 150.7 51.9333 152.9 54.2C155.1 56.4667 157.233 58.6667 159.3 60.8L150.3 67.3ZM108.6 84.7C108.867 83.1667 109.033 81.5667 109.1 79.9C109.233 78.2333 109.3 76.2333 109.3 73.9V32.6C109.3 30.6667 109.233 28.9 109.1 27.3C109.033 25.6333 108.9 24.2333 108.7 23.1C110.433 23.4333 112.133 23.7 113.8 23.9C115.533 24.0333 117.1 24.0333 118.5 23.9C120.433 23.7 120.6 24.4333 119 26.1C118.6 26.5 118.4 27.5333 118.4 29.2V73.8C118.4 76.2667 118.433 78.3 118.5 79.9C118.633 81.4333 118.833 83.0333 119.1 84.7H108.6ZM97.9 43.6C97.5667 43.9333 97.1 44.5 96.5 45.3C95.9667 46.0333 95.4333 46.9 94.9 47.9C93.7 50.3 92.1 53.6667 90.1 58C88.1 62.2667 85.6333 67.6333 82.7 74.1C81.1667 73.2333 79.5333 72.6 77.8 72.2C76.1333 71.7333 74.4333 71.4667 72.7 71.4C74.6333 68.9333 76.4 66.2667 78 63.4C79.6 60.5333 81.0333 57.6333 82.3 54.7C83.5667 51.7 84.6667 48.7667 85.6 45.9C86.5333 42.9667 87.3 40.2 87.9 37.6C89.4333 38.3333 91.0667 39 92.8 39.6C94.5333 40.1333 96.1 40.5667 97.5 40.9C98.6333 41.1 99.2333 41.4 99.3 41.8C99.3667 42.1333 98.9 42.7333 97.9 43.6ZM146.1 72.8C147.233 73.1333 147.8 73.4333 147.8 73.7C147.8 73.9667 147.2 74.4667 146 75.2C145.133 75.6667 143.967 77 142.5 79.2C141.3 81.2 139.933 83.2667 138.4 85.4C136.933 87.4667 135.267 89.5333 133.4 91.6C131.6 93.6 129.533 95.5333 127.2 97.4C124.933 99.2667 122.367 100.967 119.5 102.5C117.433 103.633 115.267 104.633 113 105.5C110.8 106.433 108.233 107.3 105.3 108.1C102.367 108.967 98.9 109.833 94.9 110.7C90.9667 111.567 86.2 112.533 80.6 113.6C80.2667 111.867 79.5 110 78.3 108C77.1 106.067 75.7333 104.333 74.2 102.8C78.6667 103 83.1333 102.867 87.6 102.4C92.0667 101.867 96.3 101.133 100.3 100.2C104.367 99.2 108.1 98.0333 111.5 96.7C114.967 95.3 117.9 93.8 120.3 92.2C121.7 91.2667 123.2 89.9667 124.8 88.3C126.467 86.6333 128.033 84.7 129.5 82.5C131.033 80.3 132.433 77.9333 133.7 75.4C134.967 72.8667 135.933 70.2667 136.6 67.6C138.333 68.8 140.1 69.9 141.9 70.9C143.767 71.9 145.167 72.5333 146.1 72.8ZM201.8 71.5H185V78.8H201.8V71.5ZM201.8 59.8H185V66.1H201.8V59.8ZM191.6 52.8C191 49.6 190.067 46.6 188.8 43.8L196.4 42.1C197.133 43.7667 197.767 45.3 198.3 46.7C198.833 48.1 199.3 49.5667 199.7 51.1L191.6 52.8ZM196.4 29.4C198.067 30.6 199.733 31.8667 201.4 33.2C203.133 34.5333 204.767 35.8667 206.3 37.2C207.833 38.4667 209.233 39.7 210.5 40.9C211.767 42.0333 212.8 43.0333 213.6 43.9L207.5 50.2C205.967 47.8 203.8 45.2333 201 42.5C198.2 39.7667 195.333 37.2667 192.4 35C190.8 37.6667 188.967 40.5667 186.9 43.7C184.833 46.7667 182.633 49.9667 180.3 53.3H192.3C194.9 53.3 197 53.3 198.6 53.3C200.267 53.3 201.667 53.2667 202.8 53.2C203.933 53.1333 204.933 53.0667 205.8 53C206.667 52.9333 207.667 52.8333 208.8 52.7C208.667 54.3667 208.567 56.3667 208.5 58.7C208.5 60.9667 208.5 63.0667 208.5 65V73.9C208.5 75.5 208.533 77.2 208.6 79C208.667 80.7333 208.767 82.6 208.9 84.6C207.367 84.4667 205.333 84.4 202.8 84.4C200.267 84.3333 197.733 84.3 195.2 84.3H185V99.6L198.3 93.6C197.767 92.7333 197.167 91.8667 196.5 91C195.9 90.1333 195.2 89.2333 194.4 88.3L200.5 85.5C201.5 86.7 202.4 87.8333 203.2 88.9C204.067 89.9667 204.833 91.0333 205.5 92.1C206.233 93.1667 206.9 94.2667 207.5 95.4C208.167 96.4667 208.867 97.6667 209.6 99L203.8 102.9C203.4 102.167 203 101.433 202.6 100.7C202.2 99.9667 201.8 99.2333 201.4 98.5L185.6 106.4C184.4 107 183.3 107.667 182.3 108.4C181.3 109.133 180.2 110.1 179 111.3C177.467 108.3 175.8 105.567 174 103.1C175.533 102.5 176.633 101.667 177.3 100.6C177.967 99.4667 178.3 98.2333 178.3 96.9V56.3C177.633 57.2333 176.967 58.1667 176.3 59.1C175.7 60.0333 175.067 60.9667 174.4 61.9C173.933 60.3667 173.267 59 172.4 57.8C171.6 56.5333 170.433 55.3333 168.9 54.2C170.967 52.4 173.033 50.2667 175.1 47.8C177.233 45.2667 179.233 42.6 181.1 39.8C183.033 37 184.767 34.1 186.3 31.1C187.9 28.1 189.2 25.2 190.2 22.4C191.667 23.0667 193.233 23.6667 194.9 24.2C196.633 24.7333 198.133 25.1333 199.4 25.4C200.067 25.5333 200.4 25.8 200.4 26.2C200.467 26.5333 200.1 26.8667 199.3 27.2C198.7 27.4667 197.733 28.2 196.4 29.4ZM233.2 59.6C233.8 64.5333 234.733 69.4667 236 74.4C237.267 79.2667 238.833 83.4333 240.7 86.9C242.3 83.9 243.667 80.2333 244.8 75.9C246 71.5 246.8 66.0667 247.2 59.6H233.2ZM222.3 59.6C222.3 66.4 222.133 72.4667 221.8 77.8C221.467 83.1333 220.833 88 219.9 92.4C219.033 96.7333 217.733 100.7 216 104.3C214.333 107.9 212.167 111.367 209.5 114.7C208.3 113.5 207.133 112.567 206 111.9C204.933 111.3 203.5 110.7 201.7 110.1C204.433 107.7 206.667 105.233 208.4 102.7C210.133 100.167 211.467 97.0667 212.4 93.4C213.4 89.7333 214.067 85.2667 214.4 80C214.733 74.6667 214.9 68.0667 214.9 60.2C214.9 55 214.9 50.8 214.9 47.6C214.9 44.3333 214.867 41.7 214.8 39.7C214.733 37.6333 214.667 36.0333 214.6 34.9C214.533 33.7667 214.433 32.7333 214.3 31.8C217.3 31.9333 220.467 31.9 223.8 31.7C227.2 31.5 230.567 31.1667 233.9 30.7C237.3 30.1667 240.567 29.5 243.7 28.7C246.833 27.9 249.633 26.9333 252.1 25.8C252.433 26.5333 252.833 27.3333 253.3 28.2C253.833 29 254.333 29.8 254.8 30.6C255.333 31.3333 255.8 32 256.2 32.6C256.667 33.2 257.033 33.6333 257.3 33.9C258.433 35.0333 258.833 35.7333 258.5 36C258.167 36.2667 257.467 36.2333 256.4 35.9C256 35.7667 255.567 35.7 255.1 35.7C254.7 35.6333 254.133 35.6333 253.4 35.7C252.667 35.7 251.7 35.7667 250.5 35.9C249.3 36.0333 247.733 36.2 245.8 36.4C243.933 36.6 241.967 36.8333 239.9 37.1C237.833 37.3 235.767 37.5 233.7 37.7C231.633 37.8333 229.6 38 227.6 38.2C225.667 38.3333 223.9 38.4667 222.3 38.6V53H246.4C247.6 53 248.633 53 249.5 53C250.367 53 251.133 52.9667 251.8 52.9C252.533 52.8333 253.233 52.8 253.9 52.8C254.567 52.7333 255.333 52.6333 256.2 52.5C255.6 57.7667 254.933 62.4333 254.2 66.5C253.467 70.5667 252.633 74.2333 251.7 77.5C250.767 80.7 249.7 83.6 248.5 86.2C247.367 88.7333 246.067 91.1 244.6 93.3C249 99.3667 255.133 104.133 263 107.6C261.267 108.533 259.9 109.5 258.9 110.5C257.967 111.5 257.133 112.867 256.4 114.6C253 112.2 249.933 109.767 247.2 107.3C244.467 104.9 242.033 102.3 239.9 99.5C237.633 102.3 235.133 105.033 232.4 107.7C229.667 110.367 226.8 112.8 223.8 115C223.267 113.733 222.5 112.667 221.5 111.8C220.5 111 219.033 110.2 217.1 109.4C218.5 108.8 219.967 107.967 221.5 106.9C223.1 105.833 224.7 104.633 226.3 103.3C227.967 101.9 229.6 100.4 231.2 98.8C232.867 97.1333 234.433 95.4 235.9 93.6C234.767 91.7333 233.667 89.5 232.6 86.9C231.6 84.2333 230.633 81.4 229.7 78.4C228.833 75.4 228 72.3 227.2 69.1C226.467 65.8333 225.867 62.6667 225.4 59.6H222.3Z" fill="black"/>
<path d="M88.05 161H83.95V123.5H88.05V161ZM121.31 148.1H97.4098C97.5764 151.1 98.5764 153.517 100.41 155.35C102.276 157.15 104.493 158.05 107.06 158.05C111.426 158.05 114.76 155.9 117.06 151.6L120.56 153.4C118.993 156.3 117.143 158.45 115.01 159.85C112.876 161.217 110.326 161.9 107.36 161.9C103.26 161.9 99.8764 160.5 97.2098 157.7C94.5431 154.867 93.2098 151.467 93.2098 147.5C93.2098 143.533 94.5431 140.133 97.2098 137.3C99.9098 134.467 103.243 133.05 107.21 133.05C111.176 133.05 114.493 134.4 117.16 137.1C119.826 139.767 121.21 143.433 121.31 148.1ZM116.71 144.45C116.21 142.117 115.076 140.3 113.31 139C111.543 137.7 109.51 137.05 107.21 137.05C102.543 137.05 99.4431 139.517 97.9098 144.45H116.71ZM141.179 136.95L138.529 139.7C136.563 137.867 134.763 136.95 133.129 136.95C132.096 136.95 131.229 137.283 130.529 137.95C129.829 138.583 129.479 139.383 129.479 140.35C129.479 141.283 129.863 142.117 130.629 142.85C131.429 143.55 132.829 144.433 134.829 145.5C136.829 146.533 138.363 147.683 139.429 148.95C140.529 150.217 141.079 151.767 141.079 153.6C141.079 155.933 140.263 157.9 138.629 159.5C137.029 161.1 135.046 161.9 132.679 161.9C129.379 161.9 126.629 160.5 124.429 157.7L127.029 154.8C128.829 156.9 130.663 157.95 132.529 157.95C133.796 157.95 134.879 157.533 135.779 156.7C136.679 155.867 137.129 154.9 137.129 153.8C137.129 152.667 136.713 151.733 135.879 151C135.079 150.233 133.679 149.35 131.679 148.35C129.713 147.35 128.213 146.25 127.179 145.05C126.179 143.817 125.679 142.217 125.679 140.25C125.679 138.25 126.396 136.55 127.829 135.15C129.296 133.75 131.213 133.05 133.579 133.05C135.979 133.05 138.513 134.35 141.179 136.95ZM160.564 136.95L157.914 139.7C155.947 137.867 154.147 136.95 152.514 136.95C151.481 136.95 150.614 137.283 149.914 137.95C149.214 138.583 148.864 139.383 148.864 140.35C148.864 141.283 149.247 142.117 150.014 142.85C150.814 143.55 152.214 144.433 154.214 145.5C156.214 146.533 157.747 147.683 158.814 148.95C159.914 150.217 160.464 151.767 160.464 153.6C160.464 155.933 159.647 157.9 158.014 159.5C156.414 161.1 154.431 161.9 152.064 161.9C148.764 161.9 146.014 160.5 143.814 157.7L146.414 154.8C148.214 156.9 150.047 157.95 151.914 157.95C153.181 157.95 154.264 157.533 155.164 156.7C156.064 155.867 156.514 154.9 156.514 153.8C156.514 152.667 156.097 151.733 155.264 151C154.464 150.233 153.064 149.35 151.064 148.35C149.097 147.35 147.597 146.25 146.564 145.05C145.564 143.817 145.064 142.217 145.064 140.25C145.064 138.25 145.781 136.55 147.214 135.15C148.681 133.75 150.597 133.05 152.964 133.05C155.364 133.05 157.897 134.35 160.564 136.95ZM189.749 134.15L187.599 137.65C187.032 137.35 186.482 137.2 185.949 137.2C184.915 137.2 183.982 137.717 183.149 138.75C182.315 139.75 181.682 141.083 181.249 142.75C180.849 144.383 180.649 147.35 180.649 151.65V161H176.449V133.75H180.649V136.7C181.482 135.467 182.315 134.55 183.149 133.95C184.015 133.35 184.982 133.05 186.049 133.05C187.149 133.05 188.382 133.417 189.749 134.15ZM194.838 123.5C195.738 123.5 196.488 123.817 197.088 124.45C197.721 125.05 198.038 125.8 198.038 126.7C198.038 127.567 197.721 128.317 197.088 128.95C196.488 129.55 195.738 129.85 194.838 129.85C193.971 129.85 193.221 129.533 192.588 128.9C191.988 128.267 191.688 127.533 191.688 126.7C191.688 125.833 191.988 125.083 192.588 124.45C193.221 123.817 193.971 123.5 194.838 123.5ZM196.938 161H192.788V133.75H196.938V161ZM229.948 155.45C228.514 157.55 226.631 159.15 224.298 160.25C221.998 161.35 219.498 161.9 216.798 161.9C212.598 161.9 209.081 160.517 206.248 157.75C203.448 154.983 202.048 151.6 202.048 147.6C202.048 143.6 203.464 140.183 206.298 137.35C209.131 134.483 212.798 133.05 217.298 133.05C219.964 133.05 222.414 133.633 224.648 134.8C226.914 135.967 228.681 137.6 229.948 139.7L226.698 141.75C224.264 138.583 221.081 137 217.148 137C214.048 137 211.448 138 209.348 140C207.248 141.967 206.198 144.417 206.198 147.35C206.198 150.283 207.231 152.8 209.298 154.9C211.364 157 213.981 158.05 217.148 158.05C220.948 158.05 224.148 156.45 226.748 153.25L229.948 155.45ZM262.521 148.1H238.621C238.787 151.1 239.787 153.517 241.621 155.35C243.487 157.15 245.704 158.05 248.271 158.05C252.637 158.05 255.971 155.9 258.271 151.6L261.771 153.4C260.204 156.3 258.354 158.45 256.221 159.85C254.087 161.217 251.537 161.9 248.571 161.9C244.471 161.9 241.087 160.5 238.421 157.7C235.754 154.867 234.421 151.467 234.421 147.5C234.421 143.533 235.754 140.133 238.421 137.3C241.121 134.467 244.454 133.05 248.421 133.05C252.387 133.05 255.704 134.4 258.371 137.1C261.037 139.767 262.421 143.433 262.521 148.1ZM257.921 144.45C257.421 142.117 256.287 140.3 254.521 139C252.754 137.7 250.721 137.05 248.421 137.05C243.754 137.05 240.654 139.517 239.121 144.45H257.921Z" fill="black"/>
</svg>
