<?xml version="1.0" standalone="no"?><!DOCTYPE svg PUBLIC "-//W3C//DTD SVG 1.1//EN" "http://www.w3.org/Graphics/SVG/1.1/DTD/svg11.dtd"><svg t="1660204906755" class="icon" viewBox="0 0 1024 1024" version="1.1" xmlns="http://www.w3.org/2000/svg" p-id="10545" xmlns:xlink="http://www.w3.org/1999/xlink" width="200" height="200"><defs><style type="text/css">@font-face { font-weight: 400; font-style: normal; font-family: Circular-Loom; src: url("https://cdn.loom.com/assets/fonts/circular/CircularXXWeb-Book-cd7d2bcec649b1243839a15d5eb8f0a3.woff2") format("woff2"); }
@font-face { font-weight: 500; font-style: normal; font-family: Circular-Loom; src: url("https://cdn.loom.com/assets/fonts/circular/CircularXXWeb-Medium-d74eac43c78bd5852478998ce63dceb3.woff2") format("woff2"); }
@font-face { font-weight: 700; font-style: normal; font-family: Circular-Loom; src: url("https://cdn.loom.com/assets/fonts/circular/CircularXXWeb-Bold-83b8ceaf77f49c7cffa44107561909e4.woff2") format("woff2"); }
@font-face { font-weight: 900; font-style: normal; font-family: Circular-Loom; src: url("https://cdn.loom.com/assets/fonts/circular/CircularXXWeb-Black-bf067ecb8aa777ceb6df7d72226febca.woff2") format("woff2"); }
@font-face { font-family: feedback-iconfont; src: url("//at.alicdn.com/t/font_1031158_u69w8yhxdu.woff2?t=1630033759944") format("woff2"), url("//at.alicdn.com/t/font_1031158_u69w8yhxdu.woff?t=1630033759944") format("woff"), url("//at.alicdn.com/t/font_1031158_u69w8yhxdu.ttf?t=1630033759944") format("truetype"); }
</style></defs><path d="M806.4 195.2 240 195.2c-48 3.2-51.2 76.8-51.2 76.8l665.6 0C851.2 187.2 806.4 195.2 806.4 195.2z" p-id="10546"></path><path d="M620.8 105.6 424 105.6c0 0-27.2 1.6-40 52.8l281.6 0C664 158.4 651.2 115.2 620.8 105.6z" p-id="10547"></path><path d="M803.2 305.6 232 305.6l1.6 577.6c0 46.4 43.2 43.2 43.2 43.2l480 0c48-1.6 46.4-46.4 46.4-46.4L803.2 305.6zM408 825.6c0 0 1.6 22.4-27.2 22.4 0 0-20.8 1.6-27.2-22.4L353.6 403.2c0 0 1.6-22.4 27.2-22.4 0 0 22.4-3.2 27.2 22.4L408 825.6zM545.6 825.6c0 0 1.6 22.4-27.2 22.4 0 0-20.8 1.6-27.2-22.4L491.2 403.2c0 0 1.6-22.4 27.2-22.4 0 0 22.4-3.2 27.2 22.4L545.6 825.6zM683.2 825.6c0 0 1.6 22.4-27.2 22.4 0 0-20.8 1.6-27.2-22.4L628.8 403.2c0 0 1.6-22.4 27.2-22.4 0 0 22.4-3.2 27.2 22.4L683.2 825.6z" p-id="10548"></path></svg>